<?xml version="1.0" standalone="no"?>
<!DOCTYPE svg PUBLIC "-//W3C//DTD SVG 20010904//EN"
 "http://www.w3.org/TR/2001/REC-SVG-20010904/DTD/svg10.dtd">
<svg version="1.0" xmlns="http://www.w3.org/2000/svg"
 width="265.000000pt" height="100.000000pt" viewBox="0 0 265.000000 100.000000"
 preserveAspectRatio="xMidYMid meet">

<g transform="translate(0.000000,100.000000) scale(0.100000,-0.100000)"
fill="#000000" stroke="none">
<path d="M573 697 c-161 -161 -293 -300 -293 -310 0 -9 9 -21 21 -27 18 -10
31 -1 118 85 96 94 99 96 105 70 20 -78 -31 -185 -111 -232 -40 -23 -59 -28
-113 -28 -72 1 -110 16 -157 64 -49 49 -66 94 -61 171 7 123 85 202 207 208
91 4 105 -7 63 -51 -35 -36 -41 -61 -16 -71 24 -9 40 3 182 147 94 94 133 140
130 153 -8 41 -40 27 -123 -56 l-82 -82 -53 16 c-115 34 -206 11 -292 -75 -45
-45 -60 -68 -74 -114 -43 -150 35 -312 174 -359 59 -21 146 -20 208 1 93 32
184 151 184 243 0 19 20 45 75 100 52 51 75 81 73 95 -6 39 -39 29 -98 -30
-48 -48 -58 -54 -64 -39 -5 14 33 58 170 195 181 181 200 210 144 217 -21 2
-73 -45 -317 -291z"/>
<path d="M1455 760 c-31 -49 -31 -60 -1 -60 17 0 34 13 55 42 17 23 31 46 31
50 0 4 -13 8 -30 8 -24 0 -35 -8 -55 -40z"/>
<path d="M894 641 c-63 -29 -74 -67 -74 -256 l0 -155 24 -6 c14 -3 30 -3 35 1
7 4 11 61 11 155 0 93 4 159 12 175 15 33 53 43 78 20 18 -16 20 -34 22 -178
3 -140 5 -161 21 -171 12 -8 22 -8 35 0 15 10 17 31 20 170 2 129 5 161 19
176 19 22 42 23 69 4 17 -13 19 -31 24 -183 l5 -168 30 0 30 0 3 162 c3 179
-5 218 -53 249 -40 26 -109 23 -140 -6 l-25 -23 -22 20 c-34 31 -76 36 -124
14z"/>
<path d="M1423 649 c-40 -12 -80 -59 -89 -104 -12 -67 0 -239 19 -268 38 -59
119 -77 184 -43 53 27 63 58 63 203 0 109 -3 133 -20 160 -10 17 -27 36 -37
41 -30 16 -86 21 -120 11z m87 -79 c18 -18 20 -33 20 -135 0 -102 -2 -117 -20
-135 -24 -24 -48 -25 -78 -4 -21 14 -22 22 -22 139 0 117 1 125 22 139 30 21
54 20 78 -4z"/>
<path d="M2082 650 c-73 -17 -102 -78 -102 -215 0 -152 31 -205 123 -213 67
-5 108 14 131 63 22 47 18 69 -16 73 -21 2 -29 -3 -40 -25 -7 -15 -25 -34 -39
-42 -24 -13 -29 -13 -53 2 -21 14 -26 25 -26 57 0 38 1 40 33 40 97 0 157 49
157 128 0 97 -73 154 -168 132z m78 -80 c47 -47 14 -110 -57 -110 l-43 0 0 49
c0 40 4 53 22 65 30 21 54 20 78 -4z"/>
<path d="M2406 650 c-74 -23 -102 -96 -94 -247 5 -101 25 -149 73 -172 41 -20
112 -17 144 7 47 34 56 66 56 197 0 130 -9 163 -55 196 -31 22 -86 31 -124 19z
m82 -76 c21 -14 22 -22 22 -139 0 -117 -1 -125 -22 -139 -30 -21 -54 -20 -78
4 -18 18 -20 33 -20 135 0 102 2 117 20 135 24 24 48 25 78 4z"/>
<path d="M1655 639 c-8 -12 83 -387 98 -406 12 -17 72 -17 85 0 12 14 102 365
102 397 0 14 -6 20 -22 20 -38 0 -44 -11 -67 -115 -41 -185 -53 -236 -56 -233
-2 2 -20 77 -39 167 -20 90 -39 167 -42 172 -7 13 -51 11 -59 -2z"/>
<path d="M833 125 c-11 -19 -4 -85 8 -85 5 0 9 12 10 28 0 15 2 37 3 50 3 25
-9 29 -21 7z"/>
<path d="M1487 128 c-5 -16 3 -80 13 -91 4 -4 5 16 4 44 -4 54 -9 69 -17 47z"/>
<path d="M1849 125 c-8 -36 3 -84 20 -90 13 -5 14 -4 4 6 -7 7 -13 23 -13 36
0 13 6 23 13 23 8 0 9 3 1 8 -6 4 -13 14 -16 22 -4 11 -6 10 -9 -5z"/>
<path d="M2082 128 c-1 -11 -10 -18 -23 -18 -17 0 -20 -5 -17 -37 3 -38 14
-48 36 -34 9 5 12 24 9 57 -2 27 -4 41 -5 32z m-5 -62 c-4 -9 -11 -16 -17 -16
-11 0 -14 33 -3 44 11 10 26 -11 20 -28z"/>
<path d="M2200 90 c0 -27 5 -50 10 -50 6 0 10 23 10 50 0 28 -4 50 -10 50 -5
0 -10 -22 -10 -50z"/>
<path d="M1279 118 c-3 -32 4 -64 15 -76 12 -12 13 -3 7 81 -1 12 -21 8 -22
-5z"/>
<path d="M897 103 c-4 -3 -6 -22 -6 -42 2 -34 2 -34 6 -6 3 17 9 36 15 43 11
12 -3 18 -15 5z"/>
<path d="M950 76 c0 -40 14 -53 36 -35 23 19 14 63 -13 67 -20 3 -23 -1 -23
-32z m30 -1 c0 -14 -4 -25 -10 -25 -11 0 -14 33 -3 43 11 11 13 8 13 -18z"/>
<path d="M1031 68 c2 -34 3 -37 6 -13 6 43 23 56 23 17 0 -18 5 -32 10 -32 6
0 10 14 10 32 0 39 17 26 23 -17 3 -24 4 -21 6 13 l1 42 -40 0 -40 0 1 -42z"/>
<path d="M1200 95 c0 -9 7 -18 15 -21 8 -4 15 -11 15 -16 0 -6 -7 -8 -15 -4
-17 6 -21 -9 -5 -19 6 -4 18 -1 26 6 14 12 14 15 -5 30 -24 20 -28 34 -6 25 8
-3 15 -1 15 4 0 6 -9 10 -20 10 -11 0 -20 -7 -20 -15z"/>
<path d="M1347 103 c-4 -3 -6 -22 -6 -42 2 -34 2 -34 6 -6 2 17 12 36 21 43
14 10 14 12 1 12 -9 0 -19 -3 -22 -7z"/>
<path d="M1404 98 c-5 -8 -2 -9 9 -5 9 3 19 2 22 -3 4 -6 -1 -10 -10 -10 -20
0 -32 -30 -15 -40 23 -14 40 1 40 36 0 27 -4 34 -19 34 -11 0 -23 -5 -27 -12z
m36 -32 c0 -3 -4 -8 -10 -11 -5 -3 -10 -1 -10 4 0 6 5 11 10 11 6 0 10 -2 10
-4z"/>
<path d="M1547 103 c-22 -21 8 -84 33 -68 16 10 12 25 -5 19 -8 -4 -15 -1 -15
5 0 6 7 11 15 11 8 0 15 9 15 20 0 20 -28 28 -43 13z m28 -13 c3 -5 1 -10 -4
-10 -6 0 -11 5 -11 10 0 6 2 10 4 10 3 0 8 -4 11 -10z"/>
<path d="M1627 103 c-15 -15 -7 -55 13 -60 11 -3 20 -10 20 -15 0 -5 -9 -7
-20 -3 -15 5 -18 3 -14 -10 4 -9 14 -15 23 -13 12 2 17 17 19 56 3 45 1 52
-16 52 -10 0 -22 -3 -25 -7z m33 -22 c0 -11 -4 -23 -10 -26 -6 -4 -10 5 -10
19 0 14 5 26 10 26 6 0 10 -9 10 -19z"/>
<path d="M1711 78 c-1 -28 3 -38 14 -38 8 0 15 -5 15 -11 0 -6 -7 -9 -15 -5
-8 3 -15 1 -15 -5 0 -16 31 -23 41 -8 12 19 11 99 -1 99 -5 0 -10 -14 -10 -32
0 -36 -16 -28 -23 12 -3 18 -5 15 -6 -12z"/>
<path d="M1905 90 c-6 -20 10 -60 24 -60 18 0 33 31 27 55 -8 30 -42 34 -51 5z
m35 -15 c0 -14 -4 -25 -10 -25 -5 0 -10 11 -10 25 0 14 5 25 10 25 6 0 10 -11
10 -25z"/>
<path d="M2127 103 c-4 -3 -7 -19 -7 -34 0 -26 22 -45 41 -33 15 9 10 24 -6
18 -8 -4 -15 -1 -15 5 0 6 7 11 15 11 8 0 15 9 15 20 0 20 -28 28 -43 13z m23
-13 c0 -5 -5 -10 -11 -10 -5 0 -7 5 -4 10 3 6 8 10 11 10 2 0 4 -4 4 -10z"/>
<path d="M2250 75 c0 -19 5 -35 10 -35 6 0 10 16 10 35 0 19 -4 35 -10 35 -5
0 -10 -16 -10 -35z"/>
<path d="M2300 98 c0 -9 5 -29 11 -45 8 -22 12 -25 18 -13 15 28 22 72 11 65
-5 -3 -10 -16 -11 -28 -1 -19 -2 -18 -14 8 -8 18 -14 23 -15 13z"/>
<path d="M2380 76 c0 -42 16 -55 38 -31 16 16 16 17 -5 10 -13 -3 -23 -2 -23
3 0 5 9 12 21 15 26 7 20 31 -9 35 -19 3 -22 -1 -22 -32z m30 14 c0 -5 -4 -10
-10 -10 -5 0 -10 5 -10 10 0 6 5 10 10 10 6 0 10 -4 10 -10z"/>
<path d="M2461 68 c2 -35 3 -37 6 -13 3 17 9 36 15 43 8 9 6 12 -6 12 -12 0
-16 -9 -15 -42z"/>
<path d="M2521 78 c-1 -28 3 -38 14 -38 8 0 15 -5 15 -11 0 -6 -7 -8 -16 -5
-10 4 -14 1 -12 -6 3 -7 13 -13 24 -13 16 0 19 8 22 53 2 31 -1 52 -7 52 -6 0
-11 -14 -11 -32 0 -36 -16 -28 -23 12 -3 18 -5 15 -6 -12z"/>
</g>
</svg>
