<?xml version="1.0" standalone="no"?>
<!DOCTYPE svg PUBLIC "-//W3C//DTD SVG 20010904//EN"
 "http://www.w3.org/TR/2001/REC-SVG-20010904/DTD/svg10.dtd">
<svg version="1.0" xmlns="http://www.w3.org/2000/svg"
 width="84.000000pt" height="74.000000pt" viewBox="0 0 84.000000 74.000000"
 preserveAspectRatio="xMidYMid meet">
<metadata>
Created by potrace 1.16, written by Peter Selinger 2001-2019
</metadata>
<g transform="translate(0.000000,74.000000) scale(0.100000,-0.100000)"
fill="#000000" stroke="none">
<path d="M510 465 c-236 -237 -273 -277 -264 -293 23 -35 45 -25 129 58 88 88
102 90 91 16 -14 -91 -89 -165 -176 -174 -130 -12 -230 89 -218 219 11 108
127 196 229 174 l31 -7 -27 -28 c-33 -35 -31 -73 4 -78 19 -3 49 21 152 124
71 71 129 136 129 145 0 23 -25 42 -47 35 -10 -3 -49 -37 -87 -75 l-68 -68
-46 13 c-173 52 -342 -74 -342 -255 0 -156 114 -271 270 -271 135 0 242 91
265 226 6 30 22 54 72 105 49 50 64 72 61 90 -6 42 -36 35 -94 -22 -30 -29
-54 -47 -54 -39 0 8 72 87 161 176 135 135 160 165 154 183 -15 49 -45 26
-325 -254z"/>
</g>
</svg>
